<?xml version="1.0" encoding="UTF-8"?>
<svg width="64px" height="65px" viewBox="0 0 64 65" version="1.1" xmlns="http://www.w3.org/2000/svg" xmlns:xlink="http://www.w3.org/1999/xlink">
    <!-- Generator: Sketch 51.2 (57519) - http://www.bohemiancoding.com/sketch -->
    <title>icons/plans/basic</title>
    <desc>Created with Sketch.</desc>
    <defs>
        <path d="M4.62263898,29.8640023 C2.35687511,29.8640023 0.513347368,28.0204745 0.513347368,25.7547107 L0.513347368,4.62323983 C0.513347368,2.35692973 2.35687511,0.513401991 4.62263898,0.513401991 L20.1973075,0.513401991 C22.4630714,0.513401991 24.3065991,2.35692973 24.3065991,4.62323983 L24.3065991,25.7547107 C24.3065991,28.0204745 22.4630714,29.8640023 20.1973075,29.8640023 L4.62263898,29.8640023 Z" id="path-1"></path>
        <path d="M4.30265718,0.261644381 C2.15433286,0.261644381 0.386184922,1.91836131 0.208113798,4.02189474 L0.208113798,25.8530868 C0.386184922,27.956074 2.15433286,29.6122447 4.30265718,29.6122447 L19.8773257,29.6122447 C22.1430896,29.6122447 23.9866174,27.7692632 23.9866174,25.5034993 L23.9866174,4.37148222 C23.9866174,2.10517212 22.1430896,0.261644381 19.8773257,0.261644381 L4.30265718,0.261644381 Z" id="path-3"></path>
        <path d="M4.30265718,0.261644381 C2.15433286,0.261644381 0.386184922,1.91836131 0.208113798,4.02189474 L0.208113798,25.8530868 C0.386184922,27.956074 2.15433286,29.6122447 4.30265718,29.6122447 L19.8773257,29.6122447 C22.1430896,29.6122447 23.9866174,27.7692632 23.9866174,25.5034993 L23.9866174,4.37148222 C23.9866174,2.10517212 22.1430896,0.261644381 19.8773257,0.261644381 L4.30265718,0.261644381 Z" id="path-5"></path>
        <path d="M4.30265718,0.261644381 C2.15433286,0.261644381 0.386184922,1.91836131 0.208113798,4.02189474 L0.208113798,25.8530868 C0.386184922,27.956074 2.15433286,29.6122447 4.30265718,29.6122447 L19.8773257,29.6122447 C22.1430896,29.6122447 23.9866174,27.7692632 23.9866174,25.5034993 L23.9866174,4.37148222 C23.9866174,2.10517212 22.1430896,0.261644381 19.8773257,0.261644381 L4.30265718,0.261644381 Z" id="path-7"></path>
        <path d="M4.30265718,0.261644381 C2.15433286,0.261644381 0.386184922,1.91836131 0.208113798,4.02189474 L0.208113798,25.8530868 C0.386184922,27.956074 2.15433286,29.6122447 4.30265718,29.6122447 L19.8773257,29.6122447 C22.1430896,29.6122447 23.9866174,27.7692632 23.9866174,25.5034993 L23.9866174,4.37148222 C23.9866174,2.10517212 22.1430896,0.261644381 19.8773257,0.261644381 L4.30265718,0.261644381 Z" id="path-9"></path>
        <path d="M4.30265718,0.261644381 C2.15433286,0.261644381 0.386184922,1.91836131 0.208113798,4.02189474 L0.208113798,25.8530868 C0.386184922,27.956074 2.15433286,29.6122447 4.30265718,29.6122447 L19.8773257,29.6122447 C22.1430896,29.6122447 23.9866174,27.7692632 23.9866174,25.5034993 L23.9866174,4.37148222 C23.9866174,2.10517212 22.1430896,0.261644381 19.8773257,0.261644381 L4.30265718,0.261644381 Z" id="path-11"></path>
        <path d="M4.30265718,0.261644381 C2.15433286,0.261644381 0.386184922,1.91836131 0.208113798,4.02189474 L0.208113798,25.8530868 C0.386184922,27.956074 2.15433286,29.6122447 4.30265718,29.6122447 L19.8773257,29.6122447 C22.1430896,29.6122447 23.9866174,27.7692632 23.9866174,25.5034993 L23.9866174,4.37148222 C23.9866174,2.10517212 22.1430896,0.261644381 19.8773257,0.261644381 L4.30265718,0.261644381 Z" id="path-13"></path>
        <path d="M4.30265718,0.261644381 C2.15433286,0.261644381 0.386184922,1.91836131 0.208113798,4.02189474 L0.208113798,25.8530868 C0.386184922,27.956074 2.15433286,29.6122447 4.30265718,29.6122447 L19.8773257,29.6122447 C22.1430896,29.6122447 23.9866174,27.7692632 23.9866174,25.5034993 L23.9866174,4.37148222 C23.9866174,2.10517212 22.1430896,0.261644381 19.8773257,0.261644381 L4.30265718,0.261644381 Z" id="path-15"></path>
        <path d="M4.30265718,0.261644381 C2.15433286,0.261644381 0.386184922,1.91836131 0.208113798,4.02189474 L0.208113798,25.8530868 C0.386184922,27.956074 2.15433286,29.6122447 4.30265718,29.6122447 L19.8773257,29.6122447 C22.1430896,29.6122447 23.9866174,27.7692632 23.9866174,25.5034993 L23.9866174,4.37148222 C23.9866174,2.10517212 22.1430896,0.261644381 19.8773257,0.261644381 L4.30265718,0.261644381 Z" id="path-17"></path>
        <path d="M4.30265718,0.261644381 C2.15433286,0.261644381 0.386184922,1.91836131 0.208113798,4.02189474 L0.208113798,25.8530868 C0.386184922,27.956074 2.15433286,29.6122447 4.30265718,29.6122447 L19.8773257,29.6122447 C22.1430896,29.6122447 23.9866174,27.7692632 23.9866174,25.5034993 L23.9866174,4.37148222 C23.9866174,2.10517212 22.1430896,0.261644381 19.8773257,0.261644381 L4.30265718,0.261644381 Z" id="path-19"></path>
        <path d="M4.30265718,0.261644381 C2.15433286,0.261644381 0.386184922,1.91836131 0.208113798,4.02189474 L0.208113798,25.8530868 C0.386184922,27.956074 2.15433286,29.6122447 4.30265718,29.6122447 L19.8773257,29.6122447 C22.1430896,29.6122447 23.9866174,27.7692632 23.9866174,25.5034993 L23.9866174,4.37148222 C23.9866174,2.10517212 22.1430896,0.261644381 19.8773257,0.261644381 L4.30265718,0.261644381 Z" id="path-21"></path>
        <path d="M4.30265718,0.261644381 C2.15433286,0.261644381 0.386184922,1.91836131 0.208113798,4.02189474 L0.208113798,25.8530868 C0.386184922,27.956074 2.15433286,29.6122447 4.30265718,29.6122447 L19.8773257,29.6122447 C22.1430896,29.6122447 23.9866174,27.7692632 23.9866174,25.5034993 L23.9866174,4.37148222 C23.9866174,2.10517212 22.1430896,0.261644381 19.8773257,0.261644381 L4.30265718,0.261644381 Z" id="path-23"></path>
        <path d="M4.30265718,0.261644381 C2.15433286,0.261644381 0.386184922,1.91836131 0.208113798,4.02189474 L0.208113798,25.8530868 C0.386184922,27.956074 2.15433286,29.6122447 4.30265718,29.6122447 L19.8773257,29.6122447 C22.1430896,29.6122447 23.9866174,27.7692632 23.9866174,25.5034993 L23.9866174,4.37148222 C23.9866174,2.10517212 22.1430896,0.261644381 19.8773257,0.261644381 L4.30265718,0.261644381 Z" id="path-25"></path>
        <path d="M4.30265718,0.261644381 C2.15433286,0.261644381 0.386184922,1.91836131 0.208113798,4.02189474 L0.208113798,25.8530868 C0.386184922,27.956074 2.15433286,29.6122447 4.30265718,29.6122447 L19.8773257,29.6122447 C22.1430896,29.6122447 23.9866174,27.7692632 23.9866174,25.5034993 L23.9866174,4.37148222 C23.9866174,2.10517212 22.1430896,0.261644381 19.8773257,0.261644381 L4.30265718,0.261644381 Z" id="path-27"></path>
        <path d="M4.30265718,0.261644381 C2.15433286,0.261644381 0.386184922,1.91836131 0.208113798,4.02189474 L0.208113798,25.8530868 C0.386184922,27.956074 2.15433286,29.6122447 4.30265718,29.6122447 L19.8773257,29.6122447 C22.1430896,29.6122447 23.9866174,27.7692632 23.9866174,25.5034993 L23.9866174,4.37148222 C23.9866174,2.10517212 22.1430896,0.261644381 19.8773257,0.261644381 L4.30265718,0.261644381 Z" id="path-29"></path>
        <path d="M4.30265718,0.261644381 C2.15433286,0.261644381 0.386184922,1.91836131 0.208113798,4.02189474 L0.208113798,25.8530868 C0.386184922,27.956074 2.15433286,29.6122447 4.30265718,29.6122447 L19.8773257,29.6122447 C22.1430896,29.6122447 23.9866174,27.7692632 23.9866174,25.5034993 L23.9866174,4.37148222 C23.9866174,2.10517212 22.1430896,0.261644381 19.8773257,0.261644381 L4.30265718,0.261644381 Z" id="path-31"></path>
        <path d="M4.30265718,0.261644381 C2.15433286,0.261644381 0.386184922,1.91836131 0.208113798,4.02189474 L0.208113798,25.8530868 C0.386184922,27.956074 2.15433286,29.6122447 4.30265718,29.6122447 L19.8773257,29.6122447 C22.1430896,29.6122447 23.9866174,27.7692632 23.9866174,25.5034993 L23.9866174,4.37148222 C23.9866174,2.10517212 22.1430896,0.261644381 19.8773257,0.261644381 L4.30265718,0.261644381 Z" id="path-33"></path>
        <path d="M4.30265718,0.261644381 C2.15433286,0.261644381 0.386184922,1.91836131 0.208113798,4.02189474 L0.208113798,25.8530868 C0.386184922,27.956074 2.15433286,29.6122447 4.30265718,29.6122447 L19.8773257,29.6122447 C22.1430896,29.6122447 23.9866174,27.7692632 23.9866174,25.5034993 L23.9866174,4.37148222 C23.9866174,2.10517212 22.1430896,0.261644381 19.8773257,0.261644381 L4.30265718,0.261644381 Z" id="path-35"></path>
        <path d="M4.30265718,0.261644381 C2.15433286,0.261644381 0.386184922,1.91836131 0.208113798,4.02189474 L0.208113798,25.8530868 C0.386184922,27.956074 2.15433286,29.6122447 4.30265718,29.6122447 L19.8773257,29.6122447 C22.1430896,29.6122447 23.9866174,27.7692632 23.9866174,25.5034993 L23.9866174,4.37148222 C23.9866174,2.10517212 22.1430896,0.261644381 19.8773257,0.261644381 L4.30265718,0.261644381 Z" id="path-37"></path>
        <path d="M4.30265718,0.261644381 C2.15433286,0.261644381 0.386184922,1.91836131 0.208113798,4.02189474 L0.208113798,25.8530868 C0.386184922,27.956074 2.15433286,29.6122447 4.30265718,29.6122447 L19.8773257,29.6122447 C22.1430896,29.6122447 23.9866174,27.7692632 23.9866174,25.5034993 L23.9866174,4.37148222 C23.9866174,2.10517212 22.1430896,0.261644381 19.8773257,0.261644381 L4.30265718,0.261644381 Z" id="path-39"></path>
        <path d="M4.30265718,0.261644381 C2.15433286,0.261644381 0.386184922,1.91836131 0.208113798,4.02189474 L0.208113798,25.8530868 C0.386184922,27.956074 2.15433286,29.6122447 4.30265718,29.6122447 L19.8773257,29.6122447 C22.1430896,29.6122447 23.9866174,27.7692632 23.9866174,25.5034993 L23.9866174,4.37148222 C23.9866174,2.10517212 22.1430896,0.261644381 19.8773257,0.261644381 L4.30265718,0.261644381 Z" id="path-41"></path>
        <path d="M4.30265718,0.261644381 C2.15433286,0.261644381 0.386184922,1.91836131 0.208113798,4.02189474 L0.208113798,25.8530868 C0.386184922,27.956074 2.15433286,29.6122447 4.30265718,29.6122447 L19.8773257,29.6122447 C22.1430896,29.6122447 23.9866174,27.7692632 23.9866174,25.5034993 L23.9866174,4.37148222 C23.9866174,2.10517212 22.1430896,0.261644381 19.8773257,0.261644381 L4.30265718,0.261644381 Z" id="path-43"></path>
        <polygon id="path-45" points="0 0.211445804 24.8198919 0.211445804 24.8198919 30.5889047 0 30.5889047"></polygon>
    </defs>
    <g id="icons/plans/basic" stroke="none" stroke-width="1" fill="none" fill-rule="evenodd">
        <g id="icons/plans/premium" transform="translate(0.000000, 0.538462)" fill="#F5F5F5">
            <circle id="Oval-2" cx="32" cy="32" r="32"></circle>
        </g>
        <g id="Group" transform="translate(19.000000, 17.000000)">
            <path d="M4.62263898,30.4102327 C2.35687511,30.4102327 0.513347368,28.566705 0.513347368,26.3009411 L0.513347368,5.16947027 C0.513347368,2.90316017 2.35687511,1.05963243 4.62263898,1.05963243 L20.1973075,1.05963243 C22.4630714,1.05963243 24.3065991,2.90316017 24.3065991,5.16947027 L24.3065991,26.3009411 C24.3065991,28.566705 22.4630714,30.4102327 20.1973075,30.4102327 L4.62263898,30.4102327 Z" id="Fill-1" fill="#00A82D"></path>
            <g id="Group-67" transform="translate(0.000000, 0.546230)">
                <mask id="mask-2" fill="white">
                    <use xlink:href="#path-1"></use>
                </mask>
                <use id="Mask" fill="#00A82D" xlink:href="#path-1"></use>
                <g mask="url(#mask-2)">
                    <g transform="translate(0.546230, 0.000000)">
                        <g id="Group-6">
                            <mask id="mask-4" fill="white">
                                <use xlink:href="#path-3"></use>
                            </mask>
                            <g id="Clip-5"></g>
                            <polygon id="Fill-4" fill="#010202" mask="url(#mask-4)" points="58.1528398 -57.8228074 -57.407126 57.7366122 -57.736503 57.406689 57.8229166 -58.1527306"></polygon>
                        </g>
                        <g id="Group-9">
                            <mask id="mask-6" fill="white">
                                <use xlink:href="#path-5"></use>
                            </mask>
                            <g id="Clip-8"></g>
                            <polygon id="Fill-7" fill="#010202" mask="url(#mask-6)" points="-54.5877576 60.5558714 60.9722083 -55.0040945 61.3015852 -54.6741713 -54.2578344 60.8857946"></polygon>
                        </g>
                        <g id="Group-12">
                            <mask id="mask-8" fill="white">
                                <use xlink:href="#path-7"></use>
                            </mask>
                            <g id="Clip-11"></g>
                            <polygon id="Fill-10" fill="#010202" mask="url(#mask-8)" points="-51.438903 63.7046714 64.1210629 -51.8547482 64.4509861 -51.524825 -51.1089798 64.0345946"></polygon>
                        </g>
                        <g id="Group-15">
                            <mask id="mask-10" fill="white">
                                <use xlink:href="#path-9"></use>
                            </mask>
                            <g id="Clip-14"></g>
                            <polygon id="Fill-13" fill="#010202" mask="url(#mask-10)" points="-48.2895568 66.8537445 67.2704091 -48.7062213 67.5997861 -48.3757519 -47.9596336 67.1836677"></polygon>
                        </g>
                        <g id="Group-18">
                            <mask id="mask-12" fill="white">
                                <use xlink:href="#path-11"></use>
                            </mask>
                            <g id="Clip-17"></g>
                            <polygon id="Fill-16" fill="#010202" mask="url(#mask-12)" points="-45.1407568 70.0028723 70.4192091 -45.5570936 70.7485861 -45.2271704 -44.8108336 70.3327954"></polygon>
                        </g>
                        <g id="Group-21">
                            <mask id="mask-14" fill="white">
                                <use xlink:href="#path-13"></use>
                            </mask>
                            <g id="Clip-20"></g>
                            <polygon id="Fill-19" fill="#010202" mask="url(#mask-14)" points="-41.9919021 73.1516723 73.5680637 -42.4077474 73.8979869 -42.0778242 -41.6619789 73.4815954"></polygon>
                        </g>
                        <g id="Group-24">
                            <mask id="mask-16" fill="white">
                                <use xlink:href="#path-15"></use>
                            </mask>
                            <g id="Clip-23"></g>
                            <polygon id="Fill-22" fill="#010202" mask="url(#mask-16)" points="-38.8425559 76.3008 76.71741 -39.2591659 77.0467869 -38.9286964 -38.5126327 76.6307232"></polygon>
                        </g>
                        <g id="Group-27">
                            <mask id="mask-18" fill="white">
                                <use xlink:href="#path-17"></use>
                            </mask>
                            <g id="Clip-26"></g>
                            <polygon id="Fill-25" fill="#010202" mask="url(#mask-18)" points="-35.6937559 79.4498731 79.86621 -36.1100927 80.1961331 -35.7801696 -35.3638327 79.7797963"></polygon>
                        </g>
                        <g id="Group-30">
                            <mask id="mask-20" fill="white">
                                <use xlink:href="#path-19"></use>
                            </mask>
                            <g id="Clip-29"></g>
                            <polygon id="Fill-28" fill="#010202" mask="url(#mask-20)" points="-32.5449013 82.5989462 83.0150646 -32.9610196 83.3449878 -32.6310964 -32.2149781 82.9288694"></polygon>
                        </g>
                        <g id="Group-33">
                            <mask id="mask-22" fill="white">
                                <use xlink:href="#path-21"></use>
                            </mask>
                            <g id="Clip-32"></g>
                            <polygon id="Fill-31" fill="#010202" mask="url(#mask-22)" points="-29.395555 85.7478009 86.1644108 -29.8116188 86.4937878 -29.4816956 -29.0656319 86.077724"></polygon>
                        </g>
                        <g id="Group-36">
                            <mask id="mask-24" fill="white">
                                <use xlink:href="#path-23"></use>
                            </mask>
                            <g id="Clip-35"></g>
                            <polygon id="Fill-34" fill="#010202" mask="url(#mask-24)" points="-26.2467004 88.896874 89.3132654 -26.6630919 89.6431886 -26.3331687 -25.9167772 89.2267972"></polygon>
                        </g>
                        <g id="Group-39">
                            <mask id="mask-26" fill="white">
                                <use xlink:href="#path-25"></use>
                            </mask>
                            <g id="Clip-38"></g>
                            <polygon id="Fill-37" fill="#010202" mask="url(#mask-26)" points="-23.0979004 92.0460017 92.4620654 -23.5139642 92.7919886 -23.184041 -22.7679772 92.3759249"></polygon>
                        </g>
                        <g id="Group-42">
                            <mask id="mask-28" fill="white">
                                <use xlink:href="#path-27"></use>
                            </mask>
                            <g id="Clip-41"></g>
                            <polygon id="Fill-40" fill="#010202" mask="url(#mask-28)" points="-19.9485542 95.1948017 95.6114117 -20.3646179 95.9407886 -20.0346947 -19.618631 95.5247249"></polygon>
                        </g>
                        <g id="Group-45">
                            <mask id="mask-30" fill="white">
                                <use xlink:href="#path-29"></use>
                            </mask>
                            <g id="Clip-44"></g>
                            <polygon id="Fill-43" fill="#010202" mask="url(#mask-30)" points="-16.7996996 98.3438748 98.7602663 -17.216091 99.0901895 -16.8856216 -16.4697764 98.673798"></polygon>
                        </g>
                        <g id="Group-48">
                            <mask id="mask-32" fill="white">
                                <use xlink:href="#path-31"></use>
                            </mask>
                            <g id="Clip-47"></g>
                            <polygon id="Fill-46" fill="#010202" mask="url(#mask-32)" points="-13.6508996 101.493003 101.909066 -14.0669633 102.238989 -13.7370401 -13.3209764 101.822926"></polygon>
                        </g>
                        <g id="Group-51">
                            <mask id="mask-34" fill="white">
                                <use xlink:href="#path-33"></use>
                            </mask>
                            <g id="Clip-50"></g>
                            <polygon id="Fill-49" fill="#010202" mask="url(#mask-34)" points="-10.5014987 104.641803 105.058467 -10.9176171 105.387844 -10.5876939 -10.1715755 104.971726"></polygon>
                        </g>
                        <g id="Group-54">
                            <mask id="mask-36" fill="white">
                                <use xlink:href="#path-35"></use>
                            </mask>
                            <g id="Clip-53"></g>
                            <polygon id="Fill-52" fill="#010202" mask="url(#mask-36)" points="-7.35269872 107.79093 108.207267 -7.76903556 108.53719 -7.43856615 -7.02277553 108.120853"></polygon>
                        </g>
                        <g id="Group-57">
                            <mask id="mask-38" fill="white">
                                <use xlink:href="#path-37"></use>
                            </mask>
                            <g id="Clip-56"></g>
                            <polygon id="Fill-55" fill="#010202" mask="url(#mask-38)" points="-4.20335249 110.940003 111.356067 -4.61996245 111.68599 -4.29003926 -3.8734293 111.269927"></polygon>
                        </g>
                        <g id="Group-60">
                            <mask id="mask-40" fill="white">
                                <use xlink:href="#path-39"></use>
                            </mask>
                            <g id="Clip-59"></g>
                            <polygon id="Fill-58" fill="#010202" mask="url(#mask-40)" points="-1.05449787 114.088858 114.505468 -1.47056159 114.834845 -1.14063841 -0.72457468 114.418781"></polygon>
                        </g>
                        <g id="Group-63">
                            <mask id="mask-42" fill="white">
                                <use xlink:href="#path-41"></use>
                            </mask>
                            <g id="Clip-62"></g>
                            <polygon id="Fill-61" fill="#010202" mask="url(#mask-42)" points="2.09430213 117.237931 117.654268 1.67796529 117.984191 2.00843471 2.42422532 117.567854"></polygon>
                        </g>
                        <g id="Group-66">
                            <mask id="mask-44" fill="white">
                                <use xlink:href="#path-43"></use>
                            </mask>
                            <g id="Clip-65"></g>
                            <polygon id="Fill-64" fill="#010202" mask="url(#mask-44)" points="121.1331 5.15718009 5.57313457 120.717146 5.24375761 120.387223 120.803177 4.8272569"></polygon>
                        </g>
                    </g>
                </g>
            </g>
            <g id="Group-5" transform="translate(0.000000, 0.334839)">
                <mask id="mask-46" fill="white">
                    <use xlink:href="#path-45"></use>
                </mask>
                <g id="Clip-4"></g>
            </g>
            <g id="Group-9" transform="translate(4.916074, 9.074526)">
                <path d="M0.470959886,0.0228870555 L14.5172757,0.0228870555" id="Fill-6" fill="#000000"></path>
                <path d="M0.470959886,0.0228870555 L14.5172757,0.0228870555" id="Stroke-8" stroke="#FEFEFE" stroke-width="1.88" stroke-linecap="round" stroke-linejoin="round"></path>
            </g>
            <g id="Group-13" transform="translate(4.916074, 22.730287)">
                <path d="M0.470959886,0.362423898 L14.5172757,0.362423898" id="Fill-10" fill="#000000"></path>
                <path d="M0.470959886,0.362423898 L14.5172757,0.362423898" id="Stroke-12" stroke="#FEFEFE" stroke-width="1.88" stroke-linecap="round" stroke-linejoin="round"></path>
            </g>
            <g id="Group-17" transform="translate(4.916074, 15.629292)">
                <path d="M0.470959886,0.465606828 L14.5172757,0.465606828" id="Fill-14" fill="#000000"></path>
                <path d="M0.470959886,0.465606828 L14.5172757,0.465606828" id="Stroke-16" stroke="#FEFEFE" stroke-width="1.88" stroke-linecap="round" stroke-linejoin="round"></path>
            </g>
        </g>
    </g>
</svg>